<?xml version="1.0" encoding="UTF-8"?>
<svg xmlns="http://www.w3.org/2000/svg" xmlns:xlink="http://www.w3.org/1999/xlink" viewBox="0 0 30 30" width="30px" height="30px">
<g id="surface129774757">
<path style=" stroke:none;fill-rule:nonzero;fill:rgb(100%,100%,100%);fill-opacity:1;" d="M 12.8125 3.75 C 7.820312 3.75 3.75 7.820312 3.75 12.8125 C 3.75 17.804688 7.820312 21.875 12.8125 21.875 C 14.859375 21.875 16.742188 21.183594 18.261719 20.03125 L 24.117188 25.882812 C 24.429688 26.210938 24.894531 26.34375 25.332031 26.226562 C 25.769531 26.113281 26.113281 25.769531 26.226562 25.332031 C 26.34375 24.894531 26.210938 24.429688 25.882812 24.117188 L 20.03125 18.261719 C 21.183594 16.742188 21.875 14.859375 21.875 12.8125 C 21.875 7.820312 17.804688 3.75 12.8125 3.75 Z M 12.8125 6.25 C 16.453125 6.25 19.375 9.171875 19.375 12.8125 C 19.375 14.558594 18.695312 16.136719 17.59375 17.3125 C 17.484375 17.386719 17.390625 17.484375 17.3125 17.589844 C 16.140625 18.695312 14.5625 19.375 12.8125 19.375 C 9.171875 19.375 6.25 16.453125 6.25 12.8125 C 6.25 9.171875 9.171875 6.25 12.8125 6.25 Z M 12.8125 6.25 "/>
</g>
</svg>
